# xmcd CD database file
#
# Track frame offsets:
#	150
#	12642
#	35460
#	58120
#	80592
#	106250
#	131987
#	154622
#	178612
#	207545
#
# Disc length: 3142 seconds
#
# Revision: 0
# Processed by: cddbd v1.5.1PL2 Copyright (c) Steve Scherf et al.
# Submitted via: CDex 1.51
#
DISCID=8b0c440a
DTITLE=梶原秀剛 - 神様のいたずら
DYEAR=1900
DGENRE=JPop
TTITLE0=ON THE LINE
TTITLE1=さよならの天使
TTITLE2=VOCE 〜奇跡に向かって〜
TTITLE3=クリスタルブルーの瞳
TTITLE4=TOKYO MAN
TTITLE5=漂流記
TTITLE6=I..D.とウェディングベル
TTITLE7=夜間飛行
TTITLE8=京都物語
TTITLE9=君のいない風景画
EXTD=
EXTT0=
EXTT1=
EXTT2=
EXTT3=
EXTT4=
EXTT5=
EXTT6=
EXTT7=
EXTT8=
EXTT9=
PLAYORDER=
